<?xml version="1.0"?><svg width="640" height="480" xmlns="http://www.w3.org/2000/svg">
 <title>little gray whale</title>
 <g>
  <path id="svg_374" d="m310.882813,121.31987c-89.202637,-7.07756 -91.001389,92.912643 -144.165375,92.912643c-45.54435,0 -40.504723,-48.376129 -38.126465,-62.235245c5.273254,-0.389023 12.291763,-2.282791 20.916428,-7.624603c23.049057,-14.280472 9.101746,-42.07917 9.101746,-42.07917c-0.450577,9.731056 -13.517075,10.617226 -13.517075,10.617226c-24.424782,1.124687 -27.188972,20.029648 -28.008736,30.084717c-3.205299,-7.492447 -10.875732,-21.202835 -23.6054,-20.043312c-17.19912,1.56543 -13.653694,8.355995 -32.093735,-1.045647c0,0 -2.84885,27.133408 25.699501,34.02597c7.41967,1.791733 13.263443,1.717392 17.808121,0.753616c-1.709648,144.991943 139.126991,178.096558 225.817314,141.608887c99.852478,-42.024597 69.376099,-169.897186 -19.826324,-176.975082l0,0z"/>
 </g>
</svg>